<svg xmlns="http://www.w3.org/2000/svg" viewBox="0 9.050000190734863 212.25 51.45000076293945" data-asc="0.905"
    width="212.25" height="51.45000076293945">
    <defs />
    <g fill="#ffffff">
        <g transform="translate(0, 0)">
            <path
                d="M1.45 25.80L1.20 16.35Q1.20 14.10 0.70 12.80Q0.20 11.50 0.20 11.40Q0.20 10.30 3.58 9.70Q6.95 9.10 8.73 9.10Q10.50 9.10 10.65 9.95Q13.80 24 15.95 29.45Q16.20 30.05 16.48 30.05Q16.75 30.05 16.95 29.60Q20.30 20.15 22.85 10.90Q23.05 10.30 23.85 9.98Q24.65 9.65 26.63 9.35Q28.60 9.05 30.55 9.05Q32.50 9.05 32.50 9.85Q32.50 9.90 32.35 10.63Q32.20 11.35 32.05 12.40Q31.90 13.45 31.70 14.95Q31.25 18.40 31.13 22.88Q31 27.35 31 31.85L31.10 37.10Q31.10 40.70 31.58 42.23Q32.05 43.75 32.05 43.98Q32.05 44.20 31.70 44.50Q30.15 45.75 27 45.75Q25 45.75 24.75 44.40Q24.60 43.70 24.60 42.17Q24.60 40.65 24.90 32.80Q25.20 24.95 25.20 21.38Q25.20 17.80 24.80 17.80Q24.75 17.80 24.75 17.82Q24.75 17.85 24.60 17.90Q24.45 17.95 23.83 19.45Q23.20 20.95 21.35 26.85Q19.50 32.75 18 37.88Q16.50 43 16.35 43.40Q15.80 44.75 14.25 44.75Q13.50 44.75 13.05 44.20Q11.45 36.80 7.35 23.05L5.95 18.50Q5.85 18.25 5.75 18.25Q5.50 18.25 5.40 18.60Q5.20 21.85 5.20 31.38Q5.20 40.90 5.90 43.40Q5.95 43.50 5.95 43.70Q5.95 44.75 4.30 45.23Q2.65 45.70 1.33 45.70Q0 45.70 0 45.10Q0 45.05 0.25 44.30Q1 41.75 1.23 36.90Q1.45 32.05 1.45 25.80ZM51.70 30.25L51.60 36.65Q51.60 43.30 53.05 44.65Q53.25 44.85 53.25 45.10Q53.25 45.85 50.03 45.85Q46.80 45.85 46.60 43.95Q46.55 43.50 46.55 42.10L46.75 34.10Q46.75 33.75 46.35 33.75Q43.95 33.75 41.85 35.10Q39.75 36.45 39.75 38.55Q39.75 39.65 40.35 40.40Q40.95 41.15 41.83 41.15Q42.70 41.15 43.27 40.80Q43.85 40.45 43.95 40.40Q44.80 40.50 44.80 42.17Q44.80 43.85 43.25 44.88Q41.70 45.90 40 45.90Q38.30 45.90 37.08 45.30Q35.85 44.70 35.30 43.95Q34.75 43.20 34.40 42.25Q34.05 41.10 34.05 40.25Q34.05 36.75 36.25 34.65Q38.45 32.55 41.90 31.65Q46.45 30.75 46.65 30Q46.80 29.45 46.80 28.15Q46.80 25.50 44.10 25.50Q42.95 25.50 42.05 26.22Q41.15 26.95 41.15 28.05L41.45 29.25Q41.35 30.10 39.65 30.25L39.10 30.30Q37.60 30.30 36.73 29.55Q35.85 28.80 35.85 27.55Q35.85 26.75 36.38 25.77Q36.90 24.80 37.70 24.20Q38.50 23.60 40.17 23.13Q41.85 22.65 43.40 22.65Q44.95 22.65 45.80 22.75Q46.65 22.85 48.13 23.22Q49.60 23.60 50.58 24.65Q51.55 25.70 51.63 26.88Q51.70 28.05 51.70 30.25ZM54.75 45.60Q55.65 40.20 55.65 32.65Q55.65 25.10 55.20 22.85Q55.20 22.20 56.70 22.20Q59 22.20 59.75 23.95Q59.80 24.10 60 24.10Q60.20 24.10 60.30 24Q61.85 22.40 65.10 22.40Q68.35 22.40 70.25 24.05Q72.15 25.70 72.15 28.85Q72.15 30.75 71.83 34.25Q71.50 37.75 71.50 39.45Q71.50 43.50 72.85 45.30Q73.05 45.55 73.05 45.80Q73.05 46.45 71.65 46.45Q65.45 46.45 65.45 40.95Q65.45 38.85 66.40 35.10Q67.35 31.35 67.35 29.40Q67.35 25.40 64.05 25.40Q62.45 25.40 61.63 26.35Q60.80 27.30 60.70 28.52Q60.60 29.75 60.60 33.15Q60.60 38.35 60.95 42.20L61.05 43.30Q61.05 44.70 59.23 45.48Q57.40 46.25 56.08 46.25Q54.75 46.25 54.75 45.60ZM79.60 26.40Q78.30 26.45 77.73 26.47Q77.15 26.50 77.15 26.20Q77.15 25.90 77.45 25.60Q80.65 22.65 88.25 22.65Q90.85 22.65 92.35 23.10L92.85 23.25Q93.45 23.50 93.45 23.80Q93.45 24.05 93.10 24.20Q91.75 24.60 90.50 25.47Q89.25 26.35 89.25 26.70L89.55 27.05Q91.15 27.95 92.03 29.90Q92.90 31.85 93 33.35L93.10 34.90Q93.10 39.85 90.35 43.05Q87.60 46.25 82.85 46.25Q80.45 46.25 78.70 45.40Q76.95 44.55 76.13 43.48Q75.30 42.40 74.80 41.05Q74.20 39.20 74.20 37.23Q74.20 35.25 74.88 33.25Q75.55 31.25 76.42 30.30Q77.30 29.35 78.40 28.75Q79.80 28 80.65 28Q81.50 28 81.50 28.35L81.20 28.85Q80.10 30.15 79.63 32.25Q79.15 34.35 79.15 35.98Q79.15 37.60 79.55 39.20Q79.95 40.80 80.45 41.58Q80.95 42.35 81.60 42.75Q82.55 43.35 83.60 43.35Q84.65 43.35 85.65 42.52Q86.65 41.70 87.10 40.35Q88 37.85 88 35.20Q88 31 85.88 28.70Q83.75 26.40 79.60 26.40ZM105.70 22.80Q106.60 22.80 107.33 23.02Q108.05 23.25 108.10 23.25L108.40 23L108.20 17.55Q108.10 16.15 107.60 15.15Q107.10 14.15 106.70 13.85L106.25 13.60Q105.95 13.40 105.95 13.15Q105.95 12.40 108.28 11.40Q110.60 10.40 111.90 10.40Q113.20 10.40 113.30 10.95Q113.55 12.65 113.55 17.42Q113.55 22.20 113.33 26.80Q113.10 31.40 113.10 37.23Q113.10 43.05 113.85 44.55Q114.05 44.90 114.05 45.20Q114.05 45.95 111.90 45.95Q107.80 45.95 107.80 44Q107.70 43.20 107.70 41.52Q107.70 39.85 108.03 35.27Q108.35 30.70 108.35 28.22Q108.35 25.75 105.88 25.75Q103.40 25.75 102.10 28.65Q100.80 31.55 100.80 34.45Q100.80 40.60 103.90 40.60Q104.35 40.60 104.78 40.42Q105.20 40.25 105.30 40.25Q105.70 40.25 105.93 40.75Q106.15 41.25 106.15 41.75Q106.15 43.45 104.80 44.63Q103.45 45.80 101.50 45.80Q98.50 45.80 96.98 43.17Q95.45 40.55 95.45 36.65Q95.45 31.70 97.80 27.45Q99 25.35 101.05 24.07Q103.10 22.80 105.70 22.80ZM133 30.25L132.90 36.65Q132.90 43.30 134.35 44.65Q134.55 44.85 134.55 45.10Q134.55 45.85 131.33 45.85Q128.10 45.85 127.90 43.95Q127.85 43.50 127.85 42.10L128.05 34.10Q128.05 33.75 127.65 33.75Q125.25 33.75 123.15 35.10Q121.05 36.45 121.05 38.55Q121.05 39.65 121.65 40.40Q122.25 41.15 123.13 41.15Q124.00 41.15 124.58 40.80Q125.15 40.45 125.25 40.40Q126.10 40.50 126.10 42.17Q126.10 43.85 124.55 44.88Q123.00 45.90 121.30 45.90Q119.60 45.90 118.38 45.30Q117.15 44.70 116.60 43.95Q116.05 43.20 115.70 42.25Q115.35 41.10 115.35 40.25Q115.35 36.75 117.55 34.65Q119.75 32.55 123.20 31.65Q127.75 30.75 127.95 30Q128.10 29.45 128.10 28.15Q128.10 25.50 125.40 25.50Q124.25 25.50 123.35 26.22Q122.45 26.95 122.45 28.05L122.75 29.25Q122.65 30.10 120.95 30.25L120.40 30.30Q118.90 30.30 118.03 29.55Q117.15 28.80 117.15 27.55Q117.15 26.75 117.68 25.77Q118.20 24.80 119.00 24.20Q119.80 23.60 121.48 23.13Q123.15 22.65 124.70 22.65Q126.25 22.65 127.10 22.75Q127.95 22.85 129.43 23.22Q130.90 23.60 131.88 24.65Q132.85 25.70 132.93 26.88Q133 28.05 133 30.25ZM151.30 31.85L151.50 33.60Q151.50 34.55 149.70 34.55Q146.05 34.55 146.05 31.80Q146.05 31.15 146.40 30Q146.75 28.85 146.75 28Q146.75 27.15 146.25 26.52Q145.75 25.90 144.80 25.90Q143.85 25.90 143.18 26.57Q142.50 27.25 142.35 27.95L142.15 28.65Q141.85 30.20 141.85 33.83Q141.85 37.45 141.95 39.52Q142.05 41.60 142.15 42.38Q142.25 43.15 142.25 43.30Q142.25 44.55 140.70 45.33Q139.15 46.10 137.60 46.10Q136.05 46.10 136.05 45.45L136.30 43.90Q137 39.55 137 32.55Q137 25.55 136.50 23.05Q136.50 22.45 137.55 22.45Q140.25 22.45 141.15 24.30Q141.20 24.50 141.33 24.50Q141.45 24.50 142 24.05Q143.65 22.70 145.90 22.70Q147.30 22.70 148.70 23.25Q151.55 24.40 151.55 28.05L151.30 31.85ZM154.30 37.60Q154.40 32.55 154.40 29.30Q154.40 26.05 153.95 23.10Q153.95 22.60 154.95 22.60Q155.95 22.60 156.68 22.85Q157.40 23.10 157.70 23.40Q158.50 24.20 158.63 24.20Q158.75 24.20 159.40 23.75Q161.35 22.50 163.73 22.50Q166.10 22.50 167.88 23.70Q169.65 24.90 170.40 26.85Q171.75 30.20 171.75 33.95Q171.75 37.65 170.40 41.35Q169.65 43.35 168.20 44.63Q166.75 45.90 164.80 45.90Q160.95 45.90 160.95 41.45Q160.95 40.25 161.45 40.25Q161.55 40.25 162.03 40.48Q162.50 40.70 162.95 40.70Q166.50 40.70 166.50 33.17Q166.50 25.65 162.70 25.65Q161.65 25.65 160.93 26.13Q160.20 26.60 160 27.05L159.80 27.55Q159.10 32.05 159.10 44.90Q159.10 50.70 159.33 53.23Q159.55 55.75 159.55 56.25Q159.55 56.75 159.25 57.15Q158.25 58.45 156.55 59.48Q154.85 60.50 153.55 60.50Q153.05 60.50 153.05 59.85Q153.85 54.80 154.30 37.60ZM190.90 30.25L190.80 36.65Q190.80 43.30 192.25 44.65Q192.45 44.85 192.45 45.10Q192.45 45.85 189.23 45.85Q186.00 45.85 185.80 43.95Q185.75 43.50 185.75 42.10L185.95 34.10Q185.95 33.75 185.55 33.75Q183.15 33.75 181.05 35.10Q178.95 36.45 178.95 38.55Q178.95 39.65 179.55 40.40Q180.15 41.15 181.03 41.15Q181.90 41.15 182.48 40.80Q183.05 40.45 183.15 40.40Q184.00 40.50 184.00 42.17Q184.00 43.85 182.45 44.88Q180.90 45.90 179.20 45.90Q177.50 45.90 176.28 45.30Q175.05 44.70 174.50 43.95Q173.95 43.20 173.60 42.25Q173.25 41.10 173.25 40.25Q173.25 36.75 175.45 34.65Q177.65 32.55 181.10 31.65Q185.65 30.75 185.85 30Q186.00 29.45 186.00 28.15Q186.00 25.50 183.30 25.50Q182.15 25.50 181.25 26.22Q180.35 26.95 180.35 28.05L180.65 29.25Q180.55 30.10 178.85 30.25L178.30 30.30Q176.80 30.30 175.93 29.55Q175.05 28.80 175.05 27.55Q175.05 26.75 175.58 25.77Q176.10 24.80 176.90 24.20Q177.70 23.60 179.38 23.13Q181.05 22.65 182.60 22.65Q184.15 22.65 185.00 22.75Q185.85 22.85 187.33 23.22Q188.80 23.60 189.78 24.65Q190.75 25.70 190.83 26.88Q190.90 28.05 190.90 30.25ZM193.95 45.60Q194.85 40.20 194.85 32.65Q194.85 25.10 194.40 22.85Q194.40 22.20 195.90 22.20Q198.20 22.20 198.95 23.95Q199.00 24.10 199.20 24.10Q199.40 24.10 199.50 24Q201.05 22.40 204.30 22.40Q207.55 22.40 209.45 24.05Q211.35 25.70 211.35 28.85Q211.35 30.75 211.03 34.25Q210.70 37.75 210.70 39.45Q210.70 43.50 212.05 45.30Q212.25 45.55 212.25 45.80Q212.25 46.45 210.85 46.45Q204.65 46.45 204.65 40.95Q204.65 38.85 205.60 35.10Q206.55 31.35 206.55 29.40Q206.55 25.40 203.25 25.40Q201.65 25.40 200.83 26.35Q200.00 27.30 199.90 28.52Q199.80 29.75 199.80 33.15Q199.80 38.35 200.15 42.20L200.25 43.30Q200.25 44.70 198.43 45.48Q196.60 46.25 195.28 46.25Q193.95 46.25 193.95 45.60Z" />
        </g>
    </g>
</svg>